<svg id="Layer_1" data-name="Layer 1" xmlns="http://www.w3.org/2000/svg" viewBox="0 0 64 64"><title>Armor_1</title><path d="M55.74,59H8.26a1,1,0,0,1-1-1V34.83a5.54,5.54,0,0,1,1.37-3.64l5.23-6A3.52,3.52,0,0,0,14.63,22L10.71,10.85a1,1,0,0,1,.57-1.26l11.3-4.52a1,1,0,0,1,1.24.43l5.12,9a3.53,3.53,0,0,0,6.12,0l5.12-9a1,1,0,0,1,1.24-.43l11.3,4.52a1,1,0,0,1,.57,1.26L49.34,22.12a3.53,3.53,0,0,0,.8,3.09l5.23,6a5.54,5.54,0,0,1,1.37,3.64V58A1,1,0,0,1,55.74,59ZM9.26,57H54.74V34.83a3.53,3.53,0,0,0-.87-2.32l-5.24-6a5.54,5.54,0,0,1-1.2-5L51.09,11.1,41.48,7.25l-4.69,8.2a5.52,5.52,0,0,1-9.58,0l-4.69-8.2-9.61,3.84,3.63,10.37a5.56,5.56,0,0,1-1.17,5.07l-5.24,6a3.53,3.53,0,0,0-.87,2.32Z" id="id_101" style="fill: rgb(255, 255, 255);"></path><path d="M40.17,33H23.83a3,3,0,0,1-3-3V25a3,3,0,0,1,3-3H40.17a3,3,0,0,1,3,3v5A3,3,0,0,1,40.17,33ZM23.83,24a1,1,0,0,0-1,1v5a1,1,0,0,0,1,1H40.17a1,1,0,0,0,1-1V25a1,1,0,0,0-1-1Z" id="id_102" style="fill: rgb(255, 255, 255);"></path><path d="M27.74,44.3H15.91a3,3,0,0,1-3-3v-.52a3,3,0,0,1,3-3H27.74a3,3,0,0,1,3,3v.52A3,3,0,0,1,27.74,44.3ZM15.91,39.78a1,1,0,0,0-1,1v.52a1,1,0,0,0,1,1H27.74a1,1,0,0,0,1-1v-.52a1,1,0,0,0-1-1Z" id="id_103" style="fill: rgb(255, 255, 255);"></path><path d="M27.74,53.35H15.91a3,3,0,0,1-3-3v-.52a3,3,0,0,1,3-3H27.74a3,3,0,0,1,3,3v.52A3,3,0,0,1,27.74,53.35ZM15.91,48.83a1,1,0,0,0-1,1v.52a1,1,0,0,0,1,1H27.74a1,1,0,0,0,1-1v-.52a1,1,0,0,0-1-1Z" id="id_104" style="fill: rgb(255, 255, 255);"></path><path d="M48.09,44.3H36.26a3,3,0,0,1-3-3v-.52a3,3,0,0,1,3-3H48.09a3,3,0,0,1,3,3v.52A3,3,0,0,1,48.09,44.3ZM36.26,39.78a1,1,0,0,0-1,1v.52a1,1,0,0,0,1,1H48.09a1,1,0,0,0,1-1v-.52a1,1,0,0,0-1-1Z" id="id_105" style="fill: rgb(255, 255, 255);"></path><path d="M48.09,53.35H36.26a3,3,0,0,1-3-3v-.52a3,3,0,0,1,3-3H48.09a3,3,0,0,1,3,3v.52A3,3,0,0,1,48.09,53.35ZM36.26,48.83a1,1,0,0,0-1,1v.52a1,1,0,0,0,1,1H48.09a1,1,0,0,0,1-1v-.52a1,1,0,0,0-1-1Z" id="id_106" style="fill: rgb(255, 255, 255);"></path></svg>